<?xml version="1.0" encoding="UTF-8" standalone="no"?>
<!-- Created with Inkscape (http://www.inkscape.org/) -->

<svg
   width="274.59525mm"
   height="274.59528mm"
   viewBox="0 0 274.59525 274.59528"
   version="1.1"
   id="svg5"
   xml:space="preserve"
   xmlns:inkscape="http://www.inkscape.org/namespaces/inkscape"
   xmlns:sodipodi="http://sodipodi.sourceforge.net/DTD/sodipodi-0.dtd"
   xmlns="http://www.w3.org/2000/svg"
   xmlns:svg="http://www.w3.org/2000/svg"><sodipodi:namedview
     id="namedview7"
     pagecolor="#505050"
     bordercolor="#eeeeee"
     borderopacity="1"
     inkscape:showpageshadow="0"
     inkscape:pageopacity="0"
     inkscape:pagecheckerboard="0"
     inkscape:deskcolor="#505050"
     inkscape:document-units="mm"
     showgrid="false" /><defs
     id="defs2" /><g
     inkscape:label="Layer 1"
     inkscape:groupmode="layer"
     id="layer1"
     transform="translate(-295.80222,-156.91833)"><rect
       style="opacity:0.997326;fill:none;fill-opacity:1;stroke:none;stroke-width:1.79845;stroke-dasharray:none;stop-color:#000000"
       id="rect9477"
       width="274.59528"
       height="274.59528"
       x="295.80222"
       y="156.91833"
       rx="27.478861"
       ry="32.14156"
       inkscape:export-filename="logo-dark.svg"
       inkscape:export-xdpi="10.646795"
       inkscape:export-ydpi="10.646795" /><g
       id="g10115"
       transform="matrix(1.2597358,0,0,1.2597358,300.52202,114.43253)"><path
         style="fill:#ffffff;stroke:none;stroke-width:0.756672;stroke-dasharray:none"
         d="M 105.24277,55.785338 A 86.929754,86.929754 0 0 0 18.31288,142.71519 86.929754,86.929754 0 0 0 105.24277,229.64504 86.929754,86.929754 0 0 0 192.1723,142.71519 86.929754,86.929754 0 0 0 105.24277,55.785338 Z"
         id="path312" /><g
         id="g9345"
         style="stroke:none"><path
           id="path992"
           style="fill:#253242;fill-opacity:1;stroke:none;stroke-width:0.756672;stroke-dasharray:none"
           d="m 105.29513,189.1601 c -0.46513,-8.8e-4 -0.98354,-2.2e-4 -1.56476,0.001 -5.771529,0.0123 -5.962851,0.0536 -6.756697,1.46606 -0.410174,0.72985 -0.419096,0.96515 -0.419096,10.86601 0,6.68227 0.07246,10.31143 0.213424,10.68358 0.255504,0.67434 0.935684,1.44253 1.488281,1.68104 0.220222,0.0951 2.922698,0.14812 6.005838,0.11782 5.25363,-0.0516 5.68747,-0.0837 6.90707,-0.51366 3.6888,-1.30055 6.14915,-3.89417 7.33237,-7.72873 0.29331,-0.95045 0.36973,-1.82776 0.36173,-4.20388 -0.008,-2.71462 -0.0615,-3.16013 -0.55138,-4.63641 -1.26025,-3.79786 -3.86197,-6.21291 -7.88066,-7.31428 -1.2391,-0.33961 -1.88023,-0.41241 -5.13612,-0.41858 z m -2.53421,5.00073 2.45205,0.12092 c 3.19725,0.15768 4.30938,0.49946 5.54229,1.70326 1.44719,1.41302 1.88929,2.73439 1.88929,5.6441 0,1.88819 -0.0776,2.50035 -0.43305,3.40341 -0.57587,1.46302 -1.37205,2.38947 -2.6727,3.10988 -1.0313,0.57118 -1.18601,0.59691 -4.0442,0.66301 l -2.97139,0.0687 0.1111,-1.57044 c 0.0611,-0.86367 0.11434,-4.17423 0.11834,-7.35666 z" /><path
           id="path988"
           style="fill:#253242;fill-opacity:1;stroke:none;stroke-width:0.756672;stroke-dasharray:none"
           d="m 70.396253,188.93817 c -5.081954,0 -5.367187,0.0201 -5.89318,0.4129 -0.304038,0.22702 -0.738808,0.6612 -0.965832,0.96531 -0.404922,0.54244 -0.412378,0.7577 -0.412378,11.33471 0,10.58952 0.0074,10.79148 0.414445,11.34659 0.672189,0.91624 1.616007,1.30676 2.87476,1.18908 0.909753,-0.085 1.203216,-0.21815 1.80144,-0.81597 l 0.715202,-0.71469 0.06201,-3.68246 0.06201,-3.68298 3.842143,-0.0837 c 3.32806,-0.0728 4.001408,-0.14272 5.039486,-0.524 3.39003,-1.24514 4.818236,-3.54888 4.796606,-7.737 -0.01453,-2.81289 -0.47314,-4.11678 -1.971456,-5.60637 -2.094708,-2.08253 -3.47162,-2.40141 -10.365259,-2.40141 z m -1.365808,4.8674 2.853056,0.0708 c 3.105568,0.0774 3.704744,0.24407 4.436422,1.23248 0.595731,0.80482 0.597786,3.06471 0.0036,3.8747 -0.781626,1.06552 -1.498207,1.26522 -4.540291,1.26556 l -2.752804,5.2e-4 v -3.22203 z" /><path
           style="fill:#253242;fill-opacity:1;stroke:none;stroke-width:0.756672;stroke-dasharray:none"
           d="m 89.814969,188.80198 c 0.994162,0.0323 1.814364,0.48938 2.377411,1.33221 l 0.454366,0.67998 v 10.75191 10.75151 l -0.454366,0.68038 c -0.249944,0.37415 -0.767977,0.83782 -1.151171,1.03034 -1.073573,0.53938 -2.599614,0.36773 -3.448805,-0.38828 -0.937864,-0.83496 -0.951757,-1.01375 -0.951356,-12.11775 2.8e-4,-9.56944 0.03033,-10.52586 0.350355,-11.15348 0.487894,-0.95682 1.256378,-1.45726 2.387186,-1.5547 0.148891,-0.0129 0.294353,-0.0167 0.43638,-0.0121 z"
           id="path982" /><path
           id="path990"
           style="fill:#253242;fill-opacity:1;stroke:none;stroke-width:0.756672;stroke-dasharray:none"
           d="m 134.25899,188.77659 c -1.17886,-9.4e-4 -1.77548,0.0976 -2.82722,0.38137 -3.92372,1.05874 -6.83425,3.88885 -8.1132,7.89048 -0.57017,1.78399 -0.71601,5.98926 -0.27647,7.96489 1.02621,4.61263 4.41352,8.124 8.74159,9.06249 1.73206,0.37566 4.98879,0.37775 6.57427,0.004 4.31122,-1.01624 7.78689,-4.71 8.75244,-9.30176 0.43682,-2.07737 0.28278,-5.78555 -0.31988,-7.70806 -1.14863,-3.66414 -3.58691,-6.28256 -7.11067,-7.63519 -1.18959,-0.45663 -1.79581,-0.55125 -4.00958,-0.62735 -0.56065,-0.0192 -1.01833,-0.0307 -1.41128,-0.031 z m 0.89762,5.22397 c 0.0526,9e-5 0.10453,8.2e-4 0.15658,0.002 3.12278,0.0724 5.17239,2.21449 5.70921,6.01048 0.40114,2.83649 -0.42575,6.09827 -1.91048,7.53495 -1.35785,1.3139 -3.861,1.90632 -5.77432,1.36684 -2.55739,-0.72108 -4.12331,-3.12838 -4.31809,-6.63939 -0.27272,-4.91599 1.85316,-8.02067 5.65547,-8.25996 0.1632,-0.0102 0.32376,-0.0153 0.48163,-0.015 z" /></g><g
         id="g9352"
         transform="translate(-2.2952672)"><g
           id="g997"
           transform="matrix(1.0065394,0,0,1.007087,1.3169357,1.8612408)"
           style="display:inline;fill:#eb7b14;fill-opacity:1;stroke:none"><path
             style="fill:#eb7b14;fill-opacity:1;stroke:none;stroke-width:0.756672;stroke-dasharray:none"
             d="m 105.54524,160.03937 c 4.24374,0.002 4.70174,0.0975 5.47041,1.13631 0.38688,0.52289 0.39982,0.81316 0.35662,8.09649 -0.0247,4.15481 -0.0901,7.62701 -0.14508,7.71601 -0.11946,0.19332 -11.162,0.22107 -11.354516,0.0285 -0.0734,-0.0734 -0.13334,-3.56729 -0.13334,-7.76373 0,-8.40424 -0.03428,-8.16383 1.263396,-8.86914 0.54425,-0.29584 1.21483,-0.34676 4.54251,-0.34449 z"
             id="path1445" /><path
             style="fill:#eb7b14;fill-opacity:1;stroke:none;stroke-width:0.756672;stroke-dasharray:none"
             d="m 105.74896,83.043808 c -1.33248,-0.0012 -2.76974,0.269704 -3.81599,0.773831 -1.31612,0.634159 -2.393837,1.433447 -2.393837,1.775236 0,0.104118 -0.263715,0.38402 -0.585747,0.622115 -0.32204,0.238094 -0.885109,1.042028 -1.251271,1.786184 -0.637367,1.295278 -0.665515,1.451317 -0.665515,3.658784 0,2.18516 0.03382,2.377703 0.649096,3.676771 1.193824,2.520662 3.943654,4.62743 6.435824,4.930781 4.11479,0.50086 7.60327,-1.357688 9.28211,-4.945248 2.24225,-4.791552 -0.24855,-10.237485 -5.47628,-11.973848 -0.61714,-0.204982 -1.37891,-0.30389 -2.17839,-0.304606 z"
             id="path1442" /><path
             style="fill:#eb7b14;fill-opacity:1;stroke:none;stroke-width:0.756672;stroke-dasharray:none"
             d="m 105.47525,71.055102 c 3.26476,-0.01699 6.50746,0.76939 9.57576,2.351601 5.85992,3.021751 9.62436,8.11615 10.82505,14.649605 0.49481,2.692531 0.32315,6.616486 -0.40745,9.312558 -0.29839,1.101116 -0.58742,2.194155 -0.64205,2.428633 -0.0992,0.425791 -0.0919,0.426311 5.67528,0.520061 6.08864,0.099 6.35207,0.13543 8.59934,1.18831 1.08089,0.50641 2.59569,2.02996 3.2048,3.22358 0.94455,1.85094 1.27143,3.81114 2.79697,16.76386 1.12835,9.58023 1.88703,15.88088 2.27809,18.91915 0.22677,1.76178 0.68251,5.52649 1.01236,8.3659 0.32984,2.83941 0.68686,5.76739 0.79377,6.50659 0.2577,1.78201 0.25195,6.22445 -0.0101,7.83997 -0.89397,5.50989 -4.70988,10.38936 -9.80564,12.53848 -2.87725,1.21348 -4.08291,1.37887 -10.10203,1.38265 l -5.40548,0.004 -0.052,-9.56946 c -0.033,-6.07356 0.0209,-9.70523 0.14741,-9.94172 0.17033,-0.31825 0.49901,-0.38288 2.25424,-0.44341 1.45308,-0.0501 2.26654,-0.17535 2.77781,-0.42817 1.1558,-0.57149 1.52442,-1.90058 0.82741,-2.98271 -0.3688,-0.57256 -2.87991,-2.84015 -8.26776,-7.46576 -1.79558,-1.54156 -4.71246,-4.06714 -6.48197,-5.61233 -7.04937,-6.1557 -7.61865,-6.58307 -9.08191,-6.81706 -1.4695,-0.23498 -2.29169,0.26684 -6.755685,4.12097 -0.956509,0.82583 -2.530848,2.1772 -3.498465,3.00304 -4.332946,3.69803 -8.386256,7.19612 -9.5112,8.20832 -0.673075,0.60561 -1.874859,1.63398 -2.670281,2.28513 -2.172586,1.77849 -2.631183,2.36955 -2.631183,3.39015 0,0.6764 0.115756,0.96422 0.550555,1.36975 0.903111,0.84232 1.330365,0.96308 3.415572,0.96308 1.437132,0 2.05385,0.0758 2.21748,0.27293 0.163471,0.19697 0.212239,2.97372 0.174784,9.96009 l -0.05201,9.68676 -4.904968,0.0274 c -5.527299,0.0305 -6.746714,-0.0937 -9.309426,-0.94824 -2.624585,-0.87512 -4.309973,-1.95064 -6.528097,-4.16554 -1.645315,-1.64291 -2.058337,-2.19563 -2.856799,-3.82262 -2.058451,-4.19441 -2.387119,-7.60459 -1.428015,-14.81501 0.285606,-2.14718 0.599254,-4.71478 0.69719,-5.70578 0.09794,-0.991 0.449865,-3.96402 0.782044,-6.60669 0.55013,-4.37659 1.356047,-10.99953 2.131461,-17.51774 0.363377,-3.05467 1.200529,-9.85334 1.614527,-13.11328 0.167792,-1.32134 0.389625,-2.78213 0.49307,-3.24626 0.495529,-2.223 2.151256,-4.54052 3.938757,-5.5134 1.852901,-1.00847 2.909684,-1.15971 9.009913,-1.29076 l 5.651818,-0.12161 -0.129043,-0.519661 c -0.07091,-0.285792 -0.243437,-0.794961 -0.383194,-1.131619 -0.139757,-0.336658 -0.451589,-1.642977 -0.693286,-2.902941 -0.741092,-3.863344 -0.330022,-8.252877 1.099551,-11.739626 2.044603,-4.986811 6.483559,-9.380341 11.477253,-11.359945 2.494207,-0.988748 5.046577,-1.487917 7.585837,-1.50113 z"
             id="path1439" /></g><path
           id="path1450"
           style="opacity:0.997326;fill:#2b384f;fill-opacity:1;stroke:none;stroke-width:1.19431;stroke-dasharray:none;stop-color:#000000"
           d="m 107.37058,72.134286 a 21.35358,21.353582 0 0 0 -21.353546,21.353547 21.35358,21.353582 0 0 0 0.03381,0.905274 c -0.09594,0.783992 0.02178,1.756123 0.315689,2.863753 a 21.35358,21.353582 0 0 0 5.506149,10.91043 c 4.999234,7.48826 11.969798,14.79953 15.812558,14.77008 3.8939,-0.0299 10.83057,-7.64453 15.67107,-15.31142 a 21.35358,21.353582 0 0 0 5.12989,-10.961883 c 0.20264,-0.918225 0.27914,-1.734247 0.20957,-2.417819 a 21.35358,21.353582 0 0 0 0.0284,-0.758415 21.35358,21.353582 0 0 0 -21.35355,-21.353547 z" /></g></g></g></svg>
